<?xml version="1.0"?>
<svg xmlns="http://www.w3.org/2000/svg" xmlns:xlink="http://www.w3.org/1999/xlink" xmlns:svgjs="http://svgjs.com/svgjs" version="1.1" width="512" height="512" x="0" y="0" viewBox="0 0 512 512" style="enable-background:new 0 0 512 512" xml:space="preserve" class=""><g><path xmlns="http://www.w3.org/2000/svg" d="m371.71875 197.472656h-30.652344l12.5625-44.867187c2.234375-7.976563-2.421875-16.253907-10.398437-18.488281-7.976563-2.234376-16.253907 2.421874-18.488281 10.398437l-14.828126 52.957031h-78.796874l12.515624-44.6875c2.230469-7.976562-2.425781-16.253906-10.402343-18.488281-7.972657-2.234375-16.253907 2.421875-18.488281 10.398437l-14.777344 52.777344h-42.542969c-8.285156 0-15 6.714844-15 15s6.714844 15 15 15h34.144531l-15.597656 55.707032h-36.546875c-8.285156 0-15 6.714843-15 15 0 8.285156 6.714844 15 15 15h28.148437l-12.828124 45.816406c-2.234376 7.976562 2.421874 16.253906 10.398437 18.488281 9.0625 2.1875 16.636719-3.773437 18.488281-10.398437l15.09375-53.90625h78.796875l-12.777343 45.636718c-2.234376 7.976563 2.421874 16.253906 10.398437 18.488282 9.761719 2.367187 16.632813-3.773438 18.488281-10.398438l15.042969-53.726562h45.046875c8.285156 0 15-6.714844 15-15 0-8.285157-6.714844-15-15-15h-36.648438l15.597657-55.707032h39.050781c8.285156 0 15-6.714844 15-15s-6.714844-15-15-15zm-85.800781 85.707032h-78.796875l15.597656-55.707032h78.796875zm0 0" fill="#ffffff" data-original="#000000" style="" class=""/><path xmlns="http://www.w3.org/2000/svg" d="m437.015625 74.984375c-23.878906-23.878906-51.757813-42.535156-82.867187-55.449219-31.113282-12.914062-64.007813-19.488281-97.777344-19.535156-.125 0-.246094 0-.371094 0-68.382812 0-142.433594 30-191.726562 86.347656-41.449219 46.71875-64.273438 106.96875-64.273438 169.652344 0 44.949219 11.6875 88.902344 33.84375 127.410156l-18.796875 75.070313c-2.664063 10.660156.277344 21.777343 7.90625 29.773437 10.152344 10.574219 22.027344 10.574219 30.3125 8.644532l80.132813-16.039063c37.285156 20.382813 79.582031 31.140625 122.601562 31.140625 62.695312 0 122.945312-22.828125 169.648438-64.269531 63.089843-61.378907 86.351562-123.339844 86.351562-191.730469 0-68.375-26.628906-132.664062-74.984375-181.015625zm-31.273437 350.300781c-41.214844 36.574219-94.390626 56.714844-149.742188 56.714844-39.199219 0-77.691406-10.09375-111.320312-29.195312-2.921876-1.65625-6.199219-2.511719-9.511719-2.511719-1.253907 0-2.515625.121093-3.761719.371093l-84.285156 16.867188-.582032.128906c-.789062.191406-1.273437.226563-1.515624.226563-.09375-.074219-.222657-.195313-.394532-.375-.457031-.476563-.636718-1.132813-.480468-1.746094l19.863281-79.339844c1.246093-4.984375.476562-10.15625-2.167969-14.566406-20.832031-34.761719-31.84375-74.824219-31.84375-115.859375 0-55.339844 20.140625-108.519531 56.71875-149.746094 46.65625-52.378906 108.910156-76.253906 169.28125-76.253906h.328125c60.238281.085938 116.871094 23.59375 159.476563 66.195312 42.6875 42.6875 66.195312 99.441407 66.195312 159.804688 0 60.375-20.253906 118.128906-76.257812 169.285156zm0 0" fill="#ffffff" data-original="#000000" style="" class=""/></g></svg>
